<?xml version="1.0" encoding="UTF-8"?>
<svg id="Capa_2" data-name="Capa 2" xmlns="http://www.w3.org/2000/svg" viewBox="0 0 1920.23 757">
  <defs>
    <style>
      .cls-1 {
        letter-spacing: 0em;
      }

      .cls-2, .cls-3 {
        font-family: SatoshiVariable-Bold, 'Satoshi Variable';
        font-variation-settings: 'wght' 900;
        font-weight: 700;
      }

      .cls-2, .cls-4 {
        font-size: 40.1px;
      }

      .cls-5 {
        letter-spacing: -.02em;
      }

      .cls-6 {
        letter-spacing: -.02em;
      }

      .cls-3 {
        font-size: 56.14px;
      }

      .cls-7 {
        letter-spacing: 0em;
      }

      .cls-8 {
        font-size: 30.08px;
      }

      .cls-8, .cls-4 {
        font-family: SatoshiVariable-Medium, 'Satoshi Variable';
        font-variation-settings: 'wght' 500;
        font-weight: 500;
      }

      .cls-9 {
        letter-spacing: 0em;
      }

      .cls-10, .cls-11, .cls-12 {
        fill: none;
      }

      .cls-13 {
        letter-spacing: -.02em;
      }

      .cls-11 {
        stroke: #1d1d1b;
      }

      .cls-11, .cls-12 {
        stroke-width: 2px;
      }

      .cls-14 {
        letter-spacing: 0em;
      }

      .cls-15 {
        letter-spacing: .02em;
      }

      .cls-16 {
        letter-spacing: 0em;
      }

      .cls-17 {
        letter-spacing: -.02em;
      }

      .cls-18 {
        fill: #1d1d1b;
      }

      .cls-19 {
        letter-spacing: -.02em;
      }

      .cls-20 {
        letter-spacing: -.02em;
      }

      .cls-21 {
        letter-spacing: -.02em;
      }

      .cls-12 {
        stroke: #ff5722;
        stroke-miterlimit: 10;
      }

      .cls-22 {
        letter-spacing: -.02em;
      }
    </style>
  </defs>
  <g id="Capa_1-2" data-name="Capa 1">
    <text class="cls-3" transform="translate(77.38 58.77)"><tspan x="0" y="0">Asign</tspan><tspan class="cls-14" x="151.13" y="0">a</tspan><tspan x="182.51" y="0">tu</tspan><tspan class="cls-13" x="236.86" y="0">r</tspan><tspan x="259.43" y="0">as impa</tspan><tspan class="cls-15" x="466.87" y="0">r</tspan><tspan x="491.68" y="0">tidas</tspan></text>
    <text class="cls-8" transform="translate(77.83 105.72)"><tspan x="0" y="0">Du</tspan><tspan class="cls-20" x="38.77" y="0">r</tspan><tspan x="49.23" y="0">an</tspan><tspan class="cls-16" x="82.59" y="0">t</tspan><tspan x="92" y="0">e los ciclos de la car</tspan><tspan class="cls-6" x="365" y="0">r</tspan><tspan x="375.52" y="0">e</tspan><tspan class="cls-20" x="391.82" y="0">r</tspan><tspan x="402.29" y="0">a</tspan></text>
    <rect class="cls-18" x="206.65" y="551.9" width="1548.09" height="18.94"/>
    <rect class="cls-18" x="971.74" y="570.02" width="23.29" height="15.79" transform="translate(405.46 1561.3) rotate(-90)"/>
    <rect class="cls-18" x="444.05" y="570.62" width="23.29" height="15.79" transform="translate(-122.82 1034.22) rotate(-90)"/>
    <rect class="cls-18" x="1542.82" y="569.89" width="23.29" height="15.79" transform="translate(976.68 2132.26) rotate(-90)"/>
    <path class="cls-11" d="M765.71,393.03h451.14c6.6,0,11.96,5.36,11.96,11.96v151.17h-475.07v-151.17c0-6.6,5.36-11.96,11.96-11.96Z"/>
    <path class="cls-11" d="M1290,393.11h450.35c6.82,0,12.36,5.54,12.36,12.36v150.77h-475.07v-150.77c0-6.82,5.54-12.36,12.36-12.36Z"/>
    <text class="cls-2" transform="translate(797.22 638.04)"><tspan x="0" y="0">Ciclo especializado</tspan><tspan x="122.05" y="40.1">V a VII</tspan></text>
    <text class="cls-2" transform="translate(337.4 637.43)"><tspan x="0" y="0">Ciclo básico</tspan><tspan x="68.93" y="40.1">I a IV</tspan></text>
    <text/>
    <text class="cls-2" transform="translate(1391.02 637.78)"><tspan x="0" y="0">Ciclo p</tspan><tspan class="cls-17" x="136.5" y="0">r</tspan><tspan class="cls-9" x="152.82" y="0">o</tspan><tspan class="cls-17" x="177.4" y="0">f</tspan><tspan x="191.44" y="0">esional</tspan><tspan x="106.19" y="40.1">IX a X</tspan></text>
    <text class="cls-4" transform="translate(872.7 458.9)"><tspan x="0" y="0">Seminario de </tspan><tspan x="-27.59" y="48.12">licenci</tspan><tspan class="cls-1" x="87.86" y="48.12">a</tspan><tspan class="cls-7" x="108.95" y="48.12">tu</tspan><tspan class="cls-19" x="144.44" y="48.12">r</tspan><tspan x="158.4" y="48.12">a I y II</tspan></text>
    <text class="cls-4" transform="translate(1355.4 458.9)"><tspan x="0" y="0">P</tspan><tspan class="cls-22" x="25.06" y="0">r</tspan><tspan class="cls-21" x="39.1" y="0">o</tspan><tspan class="cls-5" x="61.72" y="0">y</tspan><tspan x="80.92" y="0">ec</tspan><tspan class="cls-14" x="124.07" y="0">t</tspan><tspan x="136.62" y="0">o de título</tspan><tspan x="121.89" y="48.12">I y II</tspan></text>
    <text class="cls-2" transform="translate(178.6 668.73) rotate(-90)"><tspan x="0" y="0">Semest</tspan><tspan class="cls-17" x="141.03" y="0">r</tspan><tspan x="157.36" y="0">e</tspan></text>
    <rect class="cls-12" x="77.83" y="141.24" width="1779.96" height="580.78" rx="22.02" ry="22.02"/>
    <path class="cls-11" d="M765.71,199.43h451.14c6.6,0,11.96,5.36,11.96,11.96v142.27c0,4.91-3.99,8.9-8.9,8.9h-457.27c-4.91,0-8.9-3.99-8.9-8.9v-142.27c0-6.6,5.36-11.96,11.96-11.96Z"/>
    <text class="cls-4" transform="translate(851.03 294.89)"><tspan x="0" y="0">P</tspan><tspan class="cls-19" x="25.06" y="0">r</tspan><tspan x="39.02" y="0">áctica labo</tspan><tspan class="cls-19" x="235.75" y="0">r</tspan><tspan x="249.71" y="0">al</tspan></text>
    <polygon id="_Sector_" data-name="&amp;lt;Sector&amp;gt;" class="cls-10" points="0 757 0 0 1920.23 .77 1920 757 0 757"/>
  </g>
</svg>